<?xml version="1.0" encoding="UTF-8"?>
<svg width="18px" height="18px" viewBox="0 0 18 18" version="1.1" xmlns="http://www.w3.org/2000/svg" xmlns:xlink="http://www.w3.org/1999/xlink">
    <!-- Generator: Sketch 53.2 (72643) - https://sketchapp.com -->
    <title>关闭音乐</title>
    <desc>Created with Sketch.</desc>
    <g id="数据中心" stroke="none" stroke-width="1" fill="none" fill-rule="evenodd">
        <g id="14-5比特币十年" transform="translate(-1488.000000, -161.000000)" fill="#999999">
            <g id="数据模块分类" transform="translate(372.000000, 136.000000)">
                <g id="图形" transform="translate(20.000000, 24.000000)">
                    <g id="关闭音乐" transform="translate(1096.000000, 1.000000)">
                        <path d="M9.00406872,0.000241699219 C7.08301159,0.000241699219 5.25105327,0.598131615 3.70720082,1.72610474 C3.45193351,1.91372674 3.39578305,2.27018435 3.58313419,2.52576687 C3.77039754,2.78128346 4.12659518,2.83768652 4.38195029,2.64997663 C4.57081582,2.51225267 4.7656352,2.38290116 4.96584488,2.26229629 L8.82229311,10.1451445 L7.82796012,12.8551936 L7.72026887,13.0943847 C7.51867158,13.5469714 7.16969578,13.7956326 6.62382019,13.8729534 C6.3614408,13.9104602 6.0663106,13.89631 5.70084965,13.8237792 C5.3400423,13.7510727 5.03084156,13.5728109 4.83405153,13.3195355 C4.70517766,13.1554239 4.56704048,12.8857352 4.6372615,12.5292995 C4.75671844,11.9383529 5.39167088,11.6007915 6.11543676,11.7460068 L6.27714924,11.7788775 C6.49736092,11.8234374 6.71755064,11.9383529 6.92830147,12.0603215 C6.96355465,12.0790419 7.02442458,12.1071885 7.0619826,12.1189437 C7.36415903,12.2127437 7.68501571,12.0438422 7.77883394,11.7413707 C7.86543034,11.4623436 7.72720535,11.1645083 7.46721862,11.0496807 C7.19540032,10.8948415 6.872151,10.730642 6.50199256,10.6557163 L6.34034594,10.6227577 C5.00030784,10.3531788 3.75880743,11.0918237 3.51510828,12.3042586 C3.3933465,12.9138158 3.54083476,13.5259439 3.93217585,14.0253976 C4.297549,14.4919587 4.84579528,14.8179407 5.49936211,14.9492475 C5.79227525,15.0078698 6.06631058,15.0383454 6.32629735,15.0383454 C6.48568301,15.0383454 6.63789073,15.0266781 6.78785944,15.0056506 C7.71785428,14.8695977 8.40184509,14.3699902 8.76267439,13.5633628 L8.87747772,13.3078462 C8.88219716,13.2984201 8.88219716,13.2890598 8.88691662,13.2820287 C8.88915561,13.2773925 8.89154826,13.2749755 8.89385312,13.2679444 L9.51695206,11.5650644 L11.846055,16.3259038 C10.947406,16.6752644 9.98667992,16.8557014 9.00404677,16.8557014 C4.67705854,16.8557014 1.1560863,13.3312907 1.15608628,9.00016479 C1.15608628,7.44311538 1.61062407,5.93998617 2.4679833,4.65031842 C2.64367851,4.38768279 2.57104289,4.03122517 2.30866349,3.85535839 C2.0462841,3.6794916 1.69019619,3.75219816 1.51450098,4.01483378 C0.530660529,5.49203563 0.0105333717,7.21567948 0.0105333717,9.00016479 C0.0105333717,13.9620513 4.04460846,17.999978 9.00167605,17.999978 C10.8078201,17.999978 12.5484626,17.4654344 14.0383816,16.4571008 C14.1642689,16.3722003 14.2511165,16.2405363 14.2796662,16.0913049 C14.3082179,15.9420888 14.2761503,15.7876359 14.1905674,15.6621627 C14.0148722,15.3995271 13.6587843,15.3314567 13.3987975,15.5097185 C13.1726528,15.6632441 12.9386119,15.8047797 12.6976411,15.9337411 L9.96343388,10.3448513 L11.5434175,6.0268429 C11.6583087,6.3620093 11.8128212,6.69502241 12.0259867,7.0139732 C12.2204499,7.30475543 12.4265911,7.55332875 12.6233811,7.79254184 C13.1785858,8.46784039 13.4644527,8.85011553 13.3706564,9.54182744 C13.3285545,9.85596629 13.5463516,10.1444414 13.8603376,10.1866723 C13.8860641,10.1913744 13.9117906,10.1913744 13.9376927,10.1913744 C14.2186865,10.1913744 14.4647564,9.98263695 14.5045534,9.69666667 C14.6708975,8.47720063 14.0524083,7.72686647 13.5065546,7.06323523 C13.3261399,6.84755453 13.1410278,6.62242572 12.9771642,6.37618147 C12.5108826,5.68207457 12.3399068,4.81673707 12.4196326,3.57160732 C12.4196326,3.56224709 12.41724,3.55049188 12.4196326,3.54113165 C12.4196326,3.51992832 12.4196326,3.50131772 12.41724,3.48250939 L12.4102157,3.42621621 C12.4078011,3.40740786 12.4031694,3.39101648 12.3984719,3.37462509 C12.3936647,3.35616831 12.3874086,3.33815098 12.3796819,3.32072689 C12.3727454,3.30424763 12.365787,3.29016333 12.3586749,3.27377196 L12.3305558,3.22450993 C12.3211169,3.21044762 12.3094609,3.19636334 12.3001098,3.18227904 C12.288255,3.16765186 12.2757219,3.15358878 12.2625518,3.14013605 C12.2508958,3.12607375 12.2368253,3.11431853 12.2227767,3.10262924 C12.2087062,3.09087403 12.1923308,3.07911881 12.1782602,3.06745149 C12.1637585,3.05754996 12.1489181,3.04815478 12.1337657,3.03928291 L12.0775275,3.01113633 C12.0682642,3.00641228 12.0611301,3.00171018 12.051801,2.99946901 C12.0447547,2.99707402 12.0377304,2.99707402 12.0307061,2.99474494 C12.0117682,2.98789016 11.9921248,2.9831735 11.9721411,2.98068263 C11.9533511,2.97595858 11.934583,2.9736295 11.9182954,2.97123451 C11.9088565,2.97123451 11.9018322,2.96659835 11.892569,2.96659835 C11.8807374,2.96659835 11.8713863,2.96899334 11.8597304,2.96899334 C11.8409404,2.96899334 11.824565,2.96899334 11.8058847,2.97123451 C11.7823753,2.9736295 11.7588878,2.97595856 11.7354881,2.98068263 C11.7252806,2.98279591 11.7151287,2.9851697 11.7050422,2.98780168 C11.6769284,2.99463781 11.6494882,3.00399938 11.6230555,3.01577249 L11.6090069,3.02289154 C11.5793228,3.03648852 11.5510581,3.05299722 11.5246275,3.07217554 C11.5224105,3.07439474 11.5199959,3.0768117 11.5176911,3.07681172 C11.491789,3.09559809 11.4660625,3.11671354 11.4450554,3.14246514 L11.4332239,3.15422035 C11.4122169,3.17755499 11.3934269,3.20108739 11.3770515,3.22683899 L11.3630029,3.24802035 C11.348988,3.27184647 11.3372438,3.29693962 11.3279253,3.32296808 C11.3255327,3.33008713 11.3208132,3.33481119 11.3184864,3.34175444 L9.26947735,8.92635963 L5.79631422,1.82693591 C6.79679347,1.37681012 7.88303497,1.14229911 9.00406872,1.14229911 C13.3308814,1.14229911 16.8519414,4.6666219 16.8519414,8.99783573 C16.8519414,10.6744367 16.3318142,12.2736951 15.3455592,13.624402 C15.160447,13.8799845 15.2143804,14.2388371 15.4698234,14.4239762 C15.5676144,14.4958399 15.6858283,14.5344642 15.8071432,14.5341896 C15.9828384,14.5341896 16.1585336,14.4521228 16.2685297,14.2997006 C17.397817,12.7520114 17.992709,10.9183519 17.992709,8.99783573 C17.9951236,4.03825634 13.9610266,0.000241699219 9.00406872,0.000241699219 Z" id="路径"></path>
                    </g>
                </g>
            </g>
        </g>
    </g>
</svg>