<?xml version="1.0" encoding="UTF-8"?>
<svg xmlns="http://www.w3.org/2000/svg" xmlns:xlink="http://www.w3.org/1999/xlink" width="18px" height="18px" version="1.1" viewBox="0 0 18 18">
<!--Generator: Sketch 53.2 (72643) - https://sketchapp.com-->
  <title>
    音乐
  </title>
  <desc>
    Created with Sketch.
  </desc>
  <g id="数据中心" fill="none" fill-opacity="0.56" fill-rule="evenodd" stroke="none" stroke-width="1">
<!--<defs> <animate attributeName="transform" attributeType="XML" dur="12s" from="translate(20px, 24px) rotate(0deg)" repeatCount="indefinite" to="translate(20px, 24px) rotate(360deg)" xlink:href="#circlecircle"/> </defs>-->
    <g id="14-5比特币十年" fill="#000000" transform="translate(-1488.000000, -161.000000)">
      <g id="数据模块分类" transform="translate(372.000000, 136.000000)">
        <g id="circlecircle" transform="translate(20.000000, 24.000000)">
          <g id="音乐" transform="translate(1096.000000, 1.000000)">
            <path id="路径" d="M12.9708989,6.37599785 C12.5046448,5.68188406 12.3336283,4.81658683 12.4133677,3.57140297 C12.4133677,3.56202306 12.4109664,3.55032747 12.4133677,3.54094757 C12.4133677,3.51975482 12.4133677,3.50108293 12.4109664,3.48232308 L12.4039676,3.42598496 C12.4015664,3.40719581 12.396881,3.3908396 12.3921956,3.37445406 C12.3874062,3.35599731 12.3811287,3.33795996 12.3734248,3.32051954 C12.3664553,3.30404606 12.3594858,3.28994687 12.3523991,3.27359065 L12.3242576,3.2243461 C12.3148575,3.21027623 12.3032026,3.19617703 12.2938319,3.18210717 C12.2819943,3.16746758 12.2694663,3.15340127 12.2562902,3.13995616 C12.2446353,3.12588629 12.2305792,3.11407346 12.2164938,3.10240719 C12.2024376,3.0907116 12.186068,3.07892809 12.1720119,3.06726182 C12.1575125,3.05734788 12.1426661,3.04795227 12.1275008,3.03909275 L12.0712176,3.01092369 C12.061964,3.00623374 12.0548773,3.00151445 12.0454773,2.99922812 C12.0385078,2.99682452 12.0314212,2.99682452 12.0244224,2.99453815 C12.0054791,2.98769715 11.9858368,2.9829784 11.9658551,2.98046828 C11.9471136,2.97577833 11.9283427,2.97346266 11.9120025,2.97105905 C11.9026024,2.97105905 11.8955158,2.9663691 11.8862622,2.9663691 C11.8744608,2.9663691 11.8650901,2.9687727 11.8534352,2.9687727 C11.8346644,2.9687727 11.8182948,2.9687727 11.7995533,2.97105905 C11.7760971,2.97346264 11.7526409,2.97577832 11.7291847,2.98046828 C11.7175298,2.98287188 11.7081591,2.98515823 11.698759,2.98756185 C11.6706174,2.99453817 11.642593,3.00391808 11.6167648,3.01561365 L11.6026794,3.02270722 C11.5722537,3.0368064 11.5441121,3.05316264 11.5183718,3.07195177 C11.5160877,3.07423812 11.5136864,3.07664172 11.5114023,3.07664174 C11.4855448,3.09543089 11.4598045,3.11647707 11.4387496,3.14224251 L11.4269775,3.15405534 C11.4059226,3.17738788 11.3871811,3.20086698 11.3708115,3.22663245 L11.3567554,3.2478252 C11.3427088,3.27165513 11.330943,3.29676027 11.321615,3.32280591 C11.3192138,3.32992877 11.3145284,3.33461874 11.3122442,3.34159504 L7.82166365,12.8551454 L7.71389986,13.0943333 C7.51234057,13.5469435 7.16333814,13.7955406 6.61749109,13.8729249 C6.3550804,13.910386 6.05995987,13.8962868 5.69447076,13.8237097 C5.33369632,13.750986 5.02449036,13.572709 4.82764575,13.319422 C4.69882702,13.1553614 4.5606668,12.8857181 4.63088896,12.529252 C4.75030765,11.9383173 5.38529409,11.6006696 6.1091271,11.7459704 L6.27077279,11.7788294 C6.49098576,11.8233547 6.71116945,11.9383173 6.92198238,12.0602562 C6.95721059,12.0789281 7.01809128,12.1070971 7.05560363,12.1188807 C7.35781079,12.2126798 7.67867163,12.0437827 7.77246714,11.7412804 C7.85905887,11.4622279 7.72089865,11.1644156 7.46088921,11.0495702 C7.18907846,10.8947723 6.86581636,10.7305652 6.49567115,10.6555845 L6.33402546,10.6226961 C4.99394754,10.3530529 3.75237976,11.0916919 3.50873988,12.3041633 C3.38691993,12.9137699 3.53448019,13.5258681 3.92579749,14.0253193 C4.29114019,14.4919114 4.83941776,14.8179222 5.4930286,14.949241 C5.785865,15.0078654 6.05995987,15.0383209 6.31996931,15.0383209 C6.47930158,15.0383209 6.63154723,15.0266546 6.78150876,15.0055791 C7.71149861,14.869541 8.39556443,14.3699726 8.75633886,13.5633291 L8.8711893,13.3077557 C8.87587467,13.2983758 8.87587467,13.2889665 8.88056006,13.2819902 C8.88284418,13.2773003 8.88524543,13.2748967 8.88752957,13.2679204 L11.5371426,6.0266546 C11.651993,6.36189866 11.8065228,6.69485637 12.019737,7.01386144 C12.2142096,7.30458021 12.4203372,7.5531773 12.617094,7.79236515 C13.172341,8.46768978 13.4581787,8.85000929 13.3643832,9.54171946 C13.3223026,9.85588801 13.540085,10.1443204 13.8540935,10.1865887 C13.8798338,10.1912786 13.9055741,10.1912786 13.9314316,10.1912786 C14.2124667,10.1912786 14.4585371,9.98254619 14.4983335,9.69651738 C14.6646646,8.4770697 14.0461649,7.72676436 13.5002885,7.06310599 C13.3199013,6.84739724 13.1347994,6.62227926 12.9708989,6.37599785 L12.9708989,6.37599785 Z"/>
            <path id="形状" fill-rule="nonzero" d="M13.3925247,15.5097203 C12.0946738,16.3913737 10.5743258,16.8556796 8.99769463,16.8556796 C4.67068543,16.8556796 1.14967914,13.3312348 1.14967914,9 C1.14967914,7.4430219 1.60416123,5.93986106 2.46161548,4.65012262 C2.63731733,4.38745567 2.5646646,4.03101886 2.30225391,3.85514543 C2.0398725,3.679272 1.68375416,3.75196635 1.50805233,4.01463332 C0.524209873,5.49191145 0.00407386537,7.21550032 0.00407386537,9 C0.00407386537,13.9620048 4.03824667,18 8.99529338,18 C10.8015083,18 12.5421571,17.4654034 14.0320794,16.4570918 C14.1579589,16.3721806 14.2448107,16.2405251 14.2733888,16.0912998 C14.3019668,15.9420744 14.2699111,15.7876025 14.1843251,15.6621146 C14.0086232,15.3994476 13.6525342,15.3314432 13.3925247,15.5097203 L13.3925247,15.5097203 Z M8.99769463,0 C7.07665857,0 5.24470334,0.59791101 3.700782,1.72587521 C3.44548723,1.91353215 3.3893212,2.26996896 3.57667792,2.52554237 C3.76403465,2.78111577 4.12015299,2.83745389 4.37556491,2.64976763 C5.72489647,1.66496439 7.32269971,1.14203408 8.99769463,1.14203408 C13.3245867,1.14203408 16.8457101,4.66647885 16.8457101,8.99771365 C16.8457101,10.6743443 16.3255741,12.2735907 15.3393304,13.6243572 C15.1542285,13.8799306 15.2081104,14.238771 15.4635516,14.4239071 C15.5613505,14.495761 15.6795541,14.534403 15.8008698,14.5341797 C15.9765717,14.5341797 16.1522735,14.4520761 16.2623214,14.2996818 C17.3915864,12.7519664 17.9865129,10.9182221 17.9865129,8.99771365 C17.9889141,4.03811242 13.9547413,0 8.99769463,0 Z"/>
          </g>
        </g>
      </g>
    </g>
  </g>
</svg>
